<?xml version="1.0" encoding="UTF-8" standalone="no"?>
<!DOCTYPE svg PUBLIC "-//W3C//DTD SVG 1.1//EN" "http://www.w3.org/Graphics/SVG/1.1/DTD/svg11.dtd">
<svg xmlns="http://www.w3.org/2000/svg" version="1.1" viewBox="0.00 0.00 32.00 32.00">
<g fill="#000000">
<ellipse cx="0.00" cy="0.00" transform="translate(25.82,7.12) rotate(-131.7)" rx="4.47" ry="4.09"/>
<path d="
  M 14.5317 11.0697
  A 9.91 9.50 -74.3 0 1 20.9956 23.1807
  A 9.91 9.50 -74.3 0 1 9.1683 30.1503
  A 9.91 9.50 -74.3 0 1 2.7044 18.0393
  A 9.91 9.50 -74.3 0 1 14.5317 11.0697
  Z
  M 6.8993 20.3773
  A 4.62 4.18 -168.1 0 0 10.5581 25.4202
  A 4.62 4.18 -168.1 0 0 15.9407 22.2827
  A 4.62 4.18 -168.1 0 0 12.2819 17.2398
  A 4.62 4.18 -168.1 0 0 6.8993 20.3773
  Z"
/>
</g>
</svg>
