<?xml version="1.0" encoding="UTF-8" standalone="no"?>
<!DOCTYPE svg PUBLIC "-//W3C//DTD SVG 1.1//EN" "http://www.w3.org/Graphics/SVG/1.1/DTD/svg11.dtd">
<svg xmlns="http://www.w3.org/2000/svg" version="1.1" viewBox="0.00 0.00 32.00 32.00">
<g fill="#000000">
<path d="
  M 18.87 32.00
  L 16.29 32.00
  C 12.64 31.36 12.02 28.52 10.91 25.59
  A 0.74 0.74 0.0 0 0 9.87 25.20
  C 8.47 25.95 6.56 26.71 4.99 26.08
  C -0.65 23.82 2.27 17.62 5.37 14.24
  A 0.66 0.65 45.7 0 0 5.37 13.36
  Q 2.28 9.90 3.41 5.38
  C 4.43 1.28 9.30 0.36 12.64 1.73
  C 13.60 2.13 14.44 2.95 15.33 3.50
  A 1.25 1.24 -41.8 0 0 16.53 3.56
  C 20.38 1.66 23.88 -0.11 26.50 4.74
  Q 27.96 7.43 25.90 10.16
  A 0.60 0.60 0.0 0 0 26.32 11.12
  C 33.35 11.83 28.45 21.10 24.95 22.48
  A 2.53 2.52 80.1 0 0 23.34 24.78
  Q 23.17 31.26 18.87 32.00
  Z
  M 18.28 17.96
  Q 19.26 17.71 20.71 18.45
  C 23.09 19.65 25.09 18.19 25.54 15.71
  A 0.56 0.55 5.5 0 0 24.99 15.05
  L 21.28 15.05
  A 1.60 1.60 0.0 0 1 19.90 12.65
  L 22.80 7.62
  A 1.32 1.32 0.0 0 0 21.36 5.67
  Q 18.34 6.36 17.16 9.79
  A 1.29 1.18 -67.0 0 1 15.45 10.57
  Q 14.91 10.29 14.76 9.75
  Q 13.62 5.50 9.37 5.20
  C 6.38 4.98 6.42 9.88 8.92 10.65
  Q 9.75 10.90 10.52 11.20
  A 2.07 2.05 -5.0 0 1 11.52 12.03
  Q 12.32 13.34 12.11 15.20
  A 0.97 0.95 81.6 0 1 11.54 15.98
  C 8.49 17.28 6.33 18.01 5.89 21.16
  A 0.91 0.90 -5.1 0 0 7.07 22.14
  Q 9.72 21.29 11.78 19.36
  A 1.58 1.58 0.0 0 1 14.43 20.70
  C 14.23 22.48 14.91 26.88 16.80 27.99
  A 1.73 1.60 -64.4 0 0 19.15 27.06
  Q 20.58 23.38 17.65 19.90
  A 1.20 1.20 0.0 0 1 18.28 17.96
  Z"
/>
<circle cx="15.98" cy="14.60" r="1.67"/>
</g>
</svg>
