<?xml version="1.0" encoding="UTF-8" standalone="no"?>
<!DOCTYPE svg PUBLIC "-//W3C//DTD SVG 1.1//EN" "http://www.w3.org/Graphics/SVG/1.1/DTD/svg11.dtd">
<svg xmlns="http://www.w3.org/2000/svg" version="1.1" viewBox="0.00 0.00 32.00 32.00">
<path fill="#000000" d="
  M 8.81 20.41
  Q 8.27 20.34 4.56 20.18
  C 0.51 20.01 -0.64 16.74 1.39 13.71
  C 2.75 11.69 5.70 11.00 8.30 10.77
  A 0.83 0.83 0.0 0 0 8.98 9.60
  C 7.59 6.53 8.31 2.13 11.84 1.18
  C 15.26 0.27 17.77 5.13 18.21 7.87
  A 1.00 0.99 63.8 0 0 19.87 8.44
  C 22.11 6.33 25.44 4.65 28.10 6.44
  C 30.44 8.00 30.86 12.02 28.43 13.90
  Q 26.67 15.25 25.25 16.58
  A 1.36 1.36 0.0 0 0 25.59 18.80
  C 30.78 21.29 29.78 28.93 23.17 26.56
  Q 22.05 26.16 19.35 24.24
  A 1.70 1.70 0.0 0 0 16.79 24.98
  Q 16.39 25.96 16.03 27.45
  C 15.39 30.11 12.73 30.71 10.31 30.39
  C 8.20 30.12 7.13 29.84 6.86 27.64
  Q 6.41 24.10 9.09 21.16
  A 0.46 0.45 24.9 0 0 8.81 20.41
  Z
  M 17.3739 14.2661
  A 2.03 1.78 -13.5 0 0 14.9845 13.0092
  A 2.03 1.78 -13.5 0 0 13.4261 15.2139
  A 2.03 1.78 -13.5 0 0 15.8155 16.4708
  A 2.03 1.78 -13.5 0 0 17.3739 14.2661
  Z"
/>
</svg>
